<svg width="20" height="20" viewBox="0 0 20 20" fill="none" xmlns="http://www.w3.org/2000/svg">
<g clip-path="url(#clip0_72_266)">
<path d="M2.10547 5.11328V14.7524H17.7401V5.11328H2.10547ZM5.94847 5.2037H13.8685L13.8686 14.662H5.94859L5.94847 5.2037Z" fill="#CD4944"/>
<path d="M13.275 10.0302C13.275 10.0302 12.8538 9.95795 12.7963 9.69579C12.7387 9.43363 13.1437 8.57312 13.1437 8.57312H13.1436C12.8353 8.67047 12.5201 8.74361 12.2004 8.79191C11.925 8.80641 11.8818 8.29657 11.8818 8.29657C11.8818 8.29657 11.1816 9.34509 11.0017 9.18597C10.8216 9.02683 11.3778 7.13229 11.3778 7.13229C11.3778 7.13241 11.07 7.57161 10.7514 7.52458C10.4329 7.47754 10.0116 6.46344 9.98291 6.39648C9.95592 6.46332 9.52388 7.48122 9.21438 7.52458C8.90475 7.56796 8.59161 7.13229 8.59161 7.13229C8.59148 7.13241 9.15311 9.01788 8.96401 9.18597C8.77505 9.35407 8.08021 8.29483 8.08021 8.29483C8.08021 8.29483 8.03702 8.80466 7.76167 8.79016C7.44213 8.74187 7.12672 8.66873 6.81847 8.57138C6.81847 8.57138 7.22164 9.43366 7.16591 9.69583C7.11003 9.95799 6.68164 10.0302 6.68164 10.0302C6.68164 10.0302 7.89841 11.0499 7.91287 11.3843C7.91137 11.6151 7.84934 11.8414 7.73282 12.0405C7.73282 12.0405 9.38165 11.7187 9.64632 11.7639C9.91087 11.809 9.86416 12.1995 9.86416 12.3893C9.86416 12.5791 9.83541 13.4957 9.83541 13.4957H10.127C10.1268 13.4957 10.1017 12.5792 10.1017 12.3894C10.1017 12.1996 10.0585 11.8074 10.3196 11.764C10.5806 11.7206 12.2348 12.0405 12.2348 12.0405H12.2347C12.1179 11.8415 12.0558 11.6152 12.0546 11.3843C12.0564 11.0499 13.2751 10.0302 13.2751 10.0302L13.275 10.0302Z" fill="#CD4944"/>
</g>
<defs>
<clipPath id="clip0_72_266">
<rect x="1" y="4" width="18" height="12" rx="4" fill="white"/>
</clipPath>
</defs>
</svg>
