<svg width="20" height="20" viewBox="0 0 20 20" fill="none" xmlns="http://www.w3.org/2000/svg">
<path d="M9.69713 10.3333C9.63073 10.325 9.56354 10.325 9.49714 10.3333C8.79043 10.3096 8.12063 10.012 7.62926 9.50351C7.13788 8.99502 6.8634 8.31545 6.8638 7.60834C6.8638 6.1 8.08047 4.875 9.59714 4.875C10.3133 4.87376 11.0013 5.15401 11.5128 5.65534C12.0243 6.15667 12.3183 6.83891 12.3314 7.55499C12.3445 8.27107 12.0757 8.96363 11.583 9.48336C11.0902 10.0031 10.4129 10.3083 9.69713 10.3333ZM15.2138 15.8333C12.3314 15.8333 11.7772 15.837 9.69713 15.8333C7.53047 15.8333 7.62926 15.8333 3.98047 15.8333C4.0638 15.05 4.539 14.2833 5.43066 13.6833C7.62926 12.2039 11.4721 12.1667 13.7388 13.6833C14.6305 14.2833 15.1305 15.05 15.2138 15.8333Z" stroke="#B0B0B0" stroke-width="1.5" stroke-linecap="round" stroke-linejoin="round"/>
</svg>
