<svg width="20" height="20" viewBox="0 0 20 20" fill="none" xmlns="http://www.w3.org/2000/svg">
<path d="M8.33333 15.8327H10.8333V18.3327H8.33333V15.8327ZM10 1.66602C14.4583 1.84935 16.4 6.34935 13.75 9.72435C13.0583 10.5577 11.9417 11.1077 11.3917 11.8077C10.8333 12.4993 10.8333 13.3327 10.8333 14.166H8.33333C8.33333 12.7743 8.33333 11.5993 8.89167 10.766C9.44167 9.93268 10.5583 9.44102 11.25 8.89102C13.2667 7.02435 12.7667 4.38268 10 4.16602C9.33696 4.16602 8.70107 4.42941 8.23223 4.89825C7.76339 5.36709 7.5 6.00297 7.5 6.66602H5C5 5.33993 5.52678 4.06816 6.46447 3.13048C7.40215 2.1928 8.67392 1.66602 10 1.66602Z" fill="#B0B0B0"/>
</svg>
