<svg width="24" height="24" viewBox="0 0 24 24" fill="none" xmlns="http://www.w3.org/2000/svg">
<path d="M12 3.01667C14.9333 3.01667 15.3 3.01667 16.4917 3.10833C19.5167 3.2 20.8917 4.66667 20.9833 7.6C21.075 8.79167 21.075 9.06667 21.075 12C21.075 14.9333 21.075 15.3 20.9833 16.4C20.8917 19.3333 19.425 20.8 16.4917 20.8917C15.3 20.9833 15.025 20.9833 12 20.9833C9.06667 20.9833 8.7 20.9833 7.6 20.8917C4.575 20.8 3.2 19.3333 3.10833 16.4C3.01667 15.2083 3.01667 14.9333 3.01667 12C3.01667 9.06667 3.01667 8.7 3.10833 7.6C3.2 4.66667 4.66667 3.2 7.6 3.10833C8.7 3.01667 9.06667 3.01667 12 3.01667ZM12 1C8.975 1 8.60833 1 7.50833 1.09167C3.475 1.275 1.275 3.475 1.09167 7.50833C1 8.60833 1 8.975 1 12C1 15.025 1 15.3917 1.09167 16.4917C1.275 20.525 3.475 22.725 7.50833 22.9083C8.60833 23 8.975 23 12 23C15.025 23 15.3917 23 16.4917 22.9083C20.525 22.725 22.725 20.525 22.9083 16.4917C23 15.3917 23 15.025 23 12C23 8.975 23 8.60833 22.9083 7.50833C22.725 3.475 20.525 1.275 16.4917 1.09167C15.3917 1 15.025 1 12 1ZM12 6.31667C8.88333 6.31667 6.31667 8.88333 6.31667 12C6.31667 15.1167 8.88333 17.6833 12 17.6833C15.1167 17.6833 17.6833 15.1167 17.6833 12C17.6833 8.88333 15.1167 6.31667 12 6.31667ZM12 15.6667C9.98333 15.6667 8.33333 14.0167 8.33333 12C8.33333 9.98333 9.98333 8.33333 12 8.33333C14.0167 8.33333 15.6667 9.98333 15.6667 12C15.6667 14.0167 14.0167 15.6667 12 15.6667ZM17.8667 4.85C17.1333 4.85 16.5833 5.4 16.5833 6.13333C16.5833 6.86667 17.1333 7.41667 17.8667 7.41667C18.6 7.41667 19.15 6.86667 19.15 6.13333C19.15 5.4 18.6 4.85 17.8667 4.85Z" fill="#282828"/>
</svg>
