<svg width="24" height="24" viewBox="0 0 24 24" fill="none" xmlns="http://www.w3.org/2000/svg">
<path d="M8.34014 19.538C15.948 19.538 20.1085 13.5013 20.1085 8.26679C20.1085 8.09528 20.1049 7.92464 20.0966 7.75467C20.9042 7.19556 21.6063 6.49765 22.16 5.70356C21.4189 6.01891 20.6215 6.23127 19.7848 6.32702C20.6387 5.83664 21.2944 5.06056 21.6037 4.13558C20.8044 4.5895 19.9194 4.91935 18.9774 5.09723C18.2224 4.3273 17.1475 3.8457 15.9581 3.8457C13.6737 3.8457 11.8212 5.61989 11.8212 7.80672C11.8212 8.11768 11.8577 8.41985 11.9283 8.70995C8.49101 8.54459 5.44281 6.96805 3.40303 4.57128C3.0474 5.15652 2.84265 5.83686 2.84265 6.56222C2.84265 7.9365 3.57294 9.14982 4.6834 9.8598C4.00493 9.83982 3.36749 9.66106 2.81009 9.36415C2.80917 9.38063 2.80917 9.39732 2.80917 9.41466C2.80917 11.3334 4.23513 12.9352 6.12748 13.2982C5.7801 13.3889 5.41461 13.4376 5.0372 13.4376C4.77076 13.4376 4.51166 13.4121 4.25967 13.3662C4.78612 14.9399 6.3132 16.0854 8.12369 16.1177C6.70781 17.1803 4.92438 17.8135 2.98664 17.8135C2.65302 17.8135 2.32376 17.7952 2 17.7586C3.83043 18.8821 6.00389 19.538 8.34014 19.538Z" fill="#282828"/>
</svg>
